HIERARCHY
ROOT Hips
{
	OFFSET 260.916687 89.964378 456.710297
	CHANNELS 6 Xposition Yposition Zposition Zrotation Yrotation Xrotation 
	JOINT LeftUpLeg
	{
		OFFSET 0.103458 1.857819 10.548503
		CHANNELS 3 Zrotation Yrotation Xrotation
		JOINT LeftLeg
		{
			OFFSET 43.500000 -0.000034 0.000000
			CHANNELS 3 Zrotation Yrotation Xrotation
			JOINT LeftFoot
			{
				OFFSET 42.372185 0.000023 -0.000012
				CHANNELS 3 Zrotation Yrotation Xrotation
				JOINT LeftToe
				{
					OFFSET 17.299986 -0.000006 0.000006
					CHANNELS 3 Zrotation Yrotation Xrotation
					End Site
					{
						OFFSET 0.000000 0.000000 0.000000
					}
				}
			}
		}
	}
	JOINT RightUpLeg
	{
		OFFSET 0.103458 1.857829 -10.548508
		CHANNELS 3 Zrotation Yrotation Xrotation
		JOINT RightLeg
		{
			OFFSET 43.500046 -0.000027 0.000013
			CHANNELS 3 Zrotation Yrotation Xrotation
			JOINT RightFoot
			{
				OFFSET 42.372257 0.000000 -0.000004
				CHANNELS 3 Zrotation Yrotation Xrotation
				JOINT RightToe
				{
					OFFSET 17.299995 -0.000005 0.000013
					CHANNELS 3 Zrotation Yrotation Xrotation
					End Site
					{
						OFFSET 0.000000 0.000000 0.000000
					}
				}
			}
		}
	}
	JOINT Spine
	{
		OFFSET 6.901965 -2.603728 -0.000004
		CHANNELS 3 Zrotation Yrotation Xrotation
		JOINT Spine1
		{
			OFFSET 12.588104 -0.000006 -0.000004
			CHANNELS 3 Zrotation Yrotation Xrotation
			JOINT Spine2
			{
				OFFSET 12.343203 0.000011 0.000026
				CHANNELS 3 Zrotation Yrotation Xrotation
				JOINT Neck
				{
					OFFSET 25.832888 0.000002 -0.000025
					CHANNELS 3 Zrotation Yrotation Xrotation
					JOINT Head
					{
						OFFSET 11.766613 -0.000025 0.000014
						CHANNELS 3 Zrotation Yrotation Xrotation
						End Site
						{
							OFFSET 0.000000 0.000000 0.000000
						}
					}
				}
				JOINT LeftShoulder
				{
					OFFSET 19.745892 -1.480383 6.000091
					CHANNELS 3 Zrotation Yrotation Xrotation
					JOINT LeftArm
					{
						OFFSET 11.284117 -0.000032 -0.000012
						CHANNELS 3 Zrotation Yrotation Xrotation
						JOINT LeftForeArm
						{
							OFFSET 33.000050 0.000008 0.000040
							CHANNELS 3 Zrotation Yrotation Xrotation
							JOINT LeftHand
							{
								OFFSET 25.199986 0.000029 0.000006
								CHANNELS 3 Zrotation Yrotation Xrotation
								End Site
								{
									OFFSET 0.000000 0.000000 0.000000
								}
							}
						}
					}
				}
				JOINT RightShoulder
				{
					OFFSET 19.746086 -1.480392 -6.000091
					CHANNELS 3 Zrotation Yrotation Xrotation
					JOINT RightArm
					{
						OFFSET 11.284138 -0.000036 -0.000015
						CHANNELS 3 Zrotation Yrotation Xrotation
						JOINT RightForeArm
						{
							OFFSET 33.000099 0.000026 0.000006
							CHANNELS 3 Zrotation Yrotation Xrotation
							JOINT RightHand
							{
								OFFSET 25.199776 0.000139 0.000412
								CHANNELS 3 Zrotation Yrotation Xrotation
								End Site
								{
									OFFSET 0.000000 0.000000 0.000000
								}
							}
						}
					}
				}
			}
		}
	}
}
MOTION
Frames: 15
Frame Time: 0.033333
31.494829 89.175117 18.450050 95.422012 1.923068 46.431609 155.189507 -9.422896 167.221418 -79.379584 2.605362 -1.628219 69.451822 -2.814328 -11.133394 21.454550 0.003094 -0.000001 164.640344 -11.757793 -174.204863 -20.768148 -3.665286 7.368538 85.865395 -7.346945 -12.283544 21.454558 -0.003102 -0.000017 6.181661 -0.698107 -0.472171 2.356435 -1.386770 -0.958158 2.038291 -1.392387 -0.949769 5.355398 1.640815 -17.574937 -25.579385 2.394534 -19.245791 -163.231836 -83.643439 -18.524484 -28.711643 55.606032 18.323876 -39.033951 -19.136447 1.702058 7.019248 -0.713509 7.178640 -160.538351 77.117569 21.305778 12.922270 -64.147006 -27.405765 -31.539751 10.024001 -0.964378 8.507443 -3.055786 -11.930577 
30.450331 89.449448 20.738029 95.417661 2.344854 41.297492 152.073493 -8.019800 170.214161 -78.640442 2.836437 -4.564650 69.365209 -0.615939 -10.919626 21.454543 0.003088 0.000008 166.569927 -11.472700 -176.829855 -21.422653 -3.239436 5.714062 86.756052 -6.105343 -12.111291 21.454558 -0.003108 -0.000017 6.207529 -0.717490 -0.294239 2.406175 -1.428918 -0.603014 2.087989 -1.432389 -0.594365 6.287345 2.025545 -16.337000 -25.643843 2.175351 -17.837247 -161.278456 -83.407449 -20.500533 -24.187353 57.996400 22.685702 -36.531868 -17.767521 1.550214 8.032746 -0.455316 4.153094 -162.918522 77.672194 18.870899 4.799663 -63.492803 -21.422328 -34.537770 10.523227 -1.060639 7.710037 -0.524748 -12.323599 
29.342131 89.667419 22.990770 95.540256 2.523146 35.906711 149.191030 -6.579896 172.751603 -76.202891 3.136481 -7.543110 70.787992 2.252947 -9.190376 21.454545 0.003093 -0.000002 168.028828 -10.885302 -178.478785 -22.221428 -2.829159 3.404251 87.677895 -4.460700 -12.139749 21.454557 -0.003108 -0.000017 6.206779 -0.695953 -0.159661 2.402905 -1.388579 -0.333383 2.084709 -1.390427 -0.324993 6.434144 2.476721 -14.944567 -25.604294 0.979257 -15.770961 -157.812163 -83.105364 -24.008523 -19.527760 60.446614 26.941104 -33.172169 -15.714160 1.340614 9.229376 -1.888883 0.337808 -165.916865 78.137644 15.810317 -3.104605 -62.284543 -16.019287 -38.316019 11.208971 -1.194652 6.736183 1.582216 -13.731294 
28.116970 89.893829 25.275940 95.766642 2.696970 29.650090 146.991039 -5.368607 173.602003 -71.811632 3.826724 -10.709628 72.253354 5.208181 -7.376662 21.454557 0.003096 -0.000002 169.378200 -10.091511 179.963545 -22.898042 -2.581284 0.649350 88.437631 -2.538141 -12.168979 21.454560 -0.003112 -0.000018 6.201192 -0.691305 0.096498 2.388630 -1.384463 0.179083 2.070434 -1.383216 0.187444 6.441660 2.900077 -13.130201 -26.558050 -0.461087 -13.161708 -154.070517 -82.866007 -27.796578 -14.265947 62.867199 31.340886 -29.941347 -13.300170 1.119248 10.208935 -3.215216 -1.805554 -169.307877 78.219682 12.353826 -10.483339 -60.259228 -11.856999 -42.273134 11.815241 -1.338069 5.399496 3.010129 -14.057507 
26.651440 90.078773 27.561510 95.948401 2.796308 23.194216 145.833705 -4.914701 174.022784 -65.495927 3.951113 -11.426679 73.099212 5.902419 -6.963774 21.454546 0.003090 0.000002 170.657030 -9.128292 178.695056 -23.526464 -2.385304 -2.311123 89.144207 -0.457152 -12.036028 21.454558 -0.003105 -0.000017 6.227883 -0.651856 0.410548 2.438464 -1.312044 0.807666 2.120307 -1.307009 0.815575 5.804605 2.594917 -11.134908 -27.695275 -1.453778 -10.621960 -150.531987 -82.403480 -31.387530 -8.609512 64.901591 36.393587 -27.049532 -11.143930 0.927888 10.898227 -2.469408 -1.141679 -172.633291 78.602623 8.967209 -16.748776 -58.458906 -8.198375 -46.167646 12.118788 -1.469785 4.002975 3.652302 -14.919640 
24.850571 90.136864 29.769470 96.066351 2.560586 17.466185 144.964481 -4.744509 174.502276 -57.641592 4.184319 -9.498195 73.186782 4.459256 -7.220714 21.454551 0.003098 0.000000 171.955859 -8.187104 177.346722 -23.908251 -1.835550 -4.806398 89.892488 1.322777 -11.780877 21.454558 -0.003101 -0.000015 6.236797 -0.505025 0.620652 2.455351 -1.022830 1.230757 2.137280 -1.015243 1.236912 5.220635 1.722034 -9.130627 -29.293117 -1.955573 -8.387815 -148.893479 -81.703433 -33.067087 -2.017270 66.201895 43.308170 -25.052558 -9.439960 0.784999 11.611356 -0.139814 -0.721220 -177.591366 79.252078 3.927619 -21.712692 -57.201748 -4.793547 -49.534123 12.290333 -1.585054 2.761487 3.797448 -15.469619 
22.739361 90.173981 31.748079 96.454422 2.154237 12.834503 144.624584 -4.630905 175.086859 -47.658051 3.477054 -7.124809 72.490765 2.407265 -8.331624 21.454550 0.003098 0.000002 173.449416 -7.441803 175.215457 -23.321589 -1.183959 -6.174007 90.236027 2.285547 -11.595820 21.454558 -0.003108 -0.000017 6.179845 -0.345345 0.732280 2.342443 -0.705098 1.457627 2.024410 -0.696152 1.461863 4.526859 1.272365 -7.569613 -30.900367 -2.758352 -6.376443 -147.704794 -81.315629 -34.283499 5.110170 66.995290 51.365191 -23.954652 -8.343887 0.696969 11.926186 3.198562 1.575278 176.948960 79.565270 -1.618031 -24.803369 -56.530600 -1.931219 -52.740139 12.285215 -1.689588 2.262322 3.419874 -16.267111 
20.356421 90.051132 33.471500 96.983434 1.567976 9.348907 144.737869 -4.334594 175.382961 -36.158052 2.718821 -4.872583 71.638931 0.241234 -9.954949 21.454553 0.003093 -0.000000 175.057721 -7.029801 173.605377 -22.338680 -0.863387 -7.000030 90.576662 2.864400 -11.552431 21.454558 -0.003112 -0.000018 6.122889 -0.175023 0.810737 2.230370 -0.365254 1.618051 1.912408 -0.355338 1.620228 2.796068 1.049539 -6.587494 -31.568649 -3.638731 -4.867967 -146.766572 -81.259580 -35.236038 11.855873 67.564101 58.827313 -23.685672 -7.875492 0.662340 12.479528 6.300524 4.446987 175.641607 79.846749 -2.939392 -27.131181 -56.553406 0.912530 -55.674217 12.048467 -1.774410 1.577878 3.111588 -16.748536 
17.804119 89.848503 34.928169 97.552839 0.955685 6.694489 145.562505 -4.262497 174.838390 -23.724008 1.546339 -2.544193 70.014090 -2.102205 -11.551811 21.454551 0.003088 0.000001 176.881218 -6.634706 172.579223 -20.921260 -0.570774 -7.679761 90.752703 3.311196 -11.647672 21.454558 -0.003105 -0.000016 6.052826 -0.000271 0.893532 2.092682 -0.016257 1.786912 1.774758 -0.005330 1.786980 1.176670 0.560261 -5.977422 -31.948644 -3.855201 -4.167784 -146.752024 -81.352525 -35.247615 18.197512 67.726933 65.285468 -24.017167 -8.018540 0.676500 13.070015 9.285420 5.661750 175.750207 80.023405 -2.824384 -27.821071 -56.974648 2.877659 -58.510781 11.735062 -1.854626 1.464560 2.767932 -17.711509 
15.065990 89.395981 36.332710 97.931505 0.223677 4.587403 146.964812 -3.584397 173.498648 -12.618349 1.562952 -0.596754 69.418942 -5.075451 -15.864433 21.454555 0.003093 0.000000 178.646043 -6.224304 173.072240 -20.193080 -0.455321 -8.958308 91.304398 4.178368 -11.854071 21.454558 -0.003109 -0.000017 6.017706 0.205802 1.023600 2.026105 0.394173 2.050545 1.708229 0.406682 2.048130 -0.325639 -0.363203 -5.607149 -32.097972 -3.294028 -4.253515 -146.589301 -81.513089 -35.406874 23.061092 67.732691 69.859557 -24.385643 -8.326178 0.702093 13.306089 10.873675 6.047969 175.402714 80.284646 -3.170421 -26.913408 -57.778688 3.536303 -60.901238 11.608471 -1.934345 0.681118 2.921934 -18.471193 
12.247110 88.911789 37.673901 97.885087 -0.143658 2.748505 147.550623 -2.477997 171.475587 -8.885902 2.576538 1.472744 70.356153 -5.828492 -14.036691 21.454550 0.003091 -0.000000 -179.629973 -5.376693 173.441166 -20.469971 -0.035119 -10.168459 91.767935 4.917771 -12.548310 21.454555 -0.003104 -0.000017 6.078363 0.332637 1.188950 2.150643 0.643722 2.383734 1.832811 0.658239 2.379807 -1.370063 -1.277512 -5.388793 -32.313400 -2.755973 -4.513605 -144.540217 -81.520432 -37.481616 24.934705 67.883242 71.159247 -24.235379 -8.075415 0.683406 13.435492 10.402609 6.067614 175.836212 80.139170 -2.734156 -25.277401 -58.131979 3.229735 -61.882846 11.161082 -1.940889 0.362231 3.705185 -17.704004 
9.415478 88.640404 38.893341 97.762738 0.001210 1.263306 147.000110 -1.466401 170.353688 -12.969004 2.805100 3.044686 66.786915 -3.547320 -3.551927 21.454555 0.003092 -0.000000 -178.531706 -4.097398 174.335019 -21.994155 0.280455 -11.456848 91.546378 5.625641 -13.425800 21.454560 -0.003111 -0.000018 6.097295 0.341182 1.288463 2.189247 0.658579 2.583008 1.871466 0.674297 2.578988 -1.227873 -2.163625 -5.165935 -32.870562 -2.071496 -4.848403 -143.000501 -81.174763 -39.054458 24.180967 67.754937 70.174859 -23.845001 -7.386947 0.632402 13.308763 8.354559 4.962584 173.382713 80.157454 -5.224778 -23.043890 -58.726882 1.541495 -60.809721 11.164899 -1.900782 -0.313865 5.644159 -15.375943 
6.266606 88.778229 40.118759 96.905378 1.195173 -0.038208 148.464953 -0.035599 170.375381 -15.003004 3.089182 2.840237 62.861687 -2.404407 -0.781734 21.454551 0.003092 0.000000 -177.409628 -1.722504 176.811085 -24.778712 -0.073298 -13.710970 89.854950 6.878736 -14.128572 21.454557 -0.003106 -0.000017 6.224269 0.030296 1.295388 2.436075 0.033942 2.591112 2.118346 0.049722 2.590862 -0.996074 -2.182523 -4.931795 -32.444713 -1.662323 -4.825817 -141.384643 -80.381621 -40.724870 20.186457 67.289405 67.398968 -22.782755 -6.812594 0.579667 13.429596 5.666853 2.802591 171.718838 79.413681 -6.937979 -20.721508 -59.097331 -2.282896 -57.661222 12.405484 -1.869165 0.013103 6.748513 -11.539522 
2.974070 89.088737 41.378300 96.268648 2.600237 -1.049805 149.800378 1.458694 173.049809 -18.354206 2.252146 0.259456 66.358081 -0.626724 -1.179604 21.454553 0.003092 0.000000 -178.471176 1.237701 -179.084650 -30.898946 -0.996366 -16.538193 86.739837 8.884762 -12.336152 21.454562 -0.003112 -0.000018 6.227525 -0.405985 1.235288 2.433293 -0.837258 2.462044 2.115482 -0.822242 2.467052 -0.176401 -1.925684 -4.812416 -32.098795 -0.895524 -5.036384 -142.950887 -79.635054 -39.166873 14.708963 66.342611 62.243432 -21.390802 -5.948018 0.504225 13.995906 2.515289 1.409826 170.621076 78.929980 -8.069895 -19.324955 -60.316759 -3.902112 -51.666614 12.247051 -1.651294 1.037890 8.183770 -8.397447 
-0.231237 89.439941 42.385139 95.831850 3.308909 -1.600311 151.189994 2.057999 173.801909 -21.027034 1.066089 -0.568914 69.973861 0.162413 -0.798847 21.454553 0.003093 0.000000 178.048292 3.685501 -174.763982 -39.720856 -2.825219 -19.703318 79.450407 11.906580 -7.307284 21.454553 -0.003105 -0.000016 6.209502 -0.703239 1.162400 2.391903 -1.429791 2.310566 2.073992 -1.415678 2.319154 -0.037159 -1.413378 -4.922979 -30.544394 -0.227507 -5.369003 -145.923891 -79.912640 -36.138077 8.591776 65.790752 56.482369 -20.219675 -5.526132 0.462091 15.063036 0.102464 1.721891 169.733233 79.077492 -8.967476 -18.382071 -62.396640 -3.997369 -44.180754 11.472961 -1.368934 3.378528 8.622211 -6.546735 
